<?xml version="1.0" standalone="no"?><!DOCTYPE svg PUBLIC "-//W3C//DTD SVG 1.1//EN" "http://www.w3.org/Graphics/SVG/1.1/DTD/svg11.dtd"><svg t="1622028834365" class="icon" viewBox="0 0 1024 1024" version="1.1" xmlns="http://www.w3.org/2000/svg" p-id="6204" width="64" height="64" xmlns:xlink="http://www.w3.org/1999/xlink"><defs><style type="text/css"></style></defs><path d="M458.24 317.952s66.7648-96.8704 175.3088-77.2096c108.6464 19.6608 160.9728 145.2032 62.7712 257.7408-98.0992 112.5376-238.1824 183.1936-238.1824 183.1936S275.0464 575.6928 224.0512 508.928c-50.9952-66.7648-81.1008-147.8656-39.2192-215.8592 41.8816-67.9936 137.4208-67.9936 187.0848-39.2192 49.664 28.7744 86.3232 64.1024 86.3232 64.1024z m0 0" fill="#EA5050" p-id="6205"></path><path d="M656.384 243.3024c43.008 43.008 51.2 109.1584 20.1728 164.4544-51.712 92.3648-230.6048 206.2336-268.288 229.4784-28.4672-17.92-137.1136-88.2688-210.7392-159.4368-8.4992-8.192-72.0896-103.2192-1.4336-194.7648 20.6848-26.8288 80.2816-56.32 139.1616-43.52C406.1184 254.976 455.68 321.9456 455.68 321.9456s40.1408-53.6576 86.8352-75.5712c64.9216-30.5152 109.2608-7.68 113.8688-3.072z m0 0" fill="#FF5F5F" p-id="6206"></path><path d="M468.2752 688.7424c16.0768-9.9328 60.3136-37.7856 108.6464-73.5232 82.0224-60.6208 136.2944-114.176 161.3824-158.9248 16.7936-30.0032 23.9616-65.024 20.2752-98.6112-3.6864-34.9184-19.3536-67.3792-44.2368-92.16-31.6416-31.6416-74.752-48.128-118.3744-45.2608-35.7376 2.2528-88.2688 18.5344-140.8 80.6912-52.5312-62.2592-105.0624-78.4384-140.8-80.7936-43.6224-2.8672-86.7328 13.6192-118.3744 45.2608-24.8832 24.6784-40.448 57.2416-44.2368 92.16-3.6864 33.5872 3.4816 68.608 20.2752 98.6112 23.9616 42.8032 77.9264 95.6416 160.256 157.0816 48.8448 36.352 93.696 65.2288 109.7728 75.264 0.1024 0 13.4144 8.192 26.2144 0.2048zM194.8672 443.392c-30.0032-53.6576-22.1184-117.76 19.5584-159.4368 24.3712-24.3712 56.9344-37.888 90.2144-37.888 2.6624 0 5.3248 0.1024 7.8848 0.2048 46.7968 3.072 92.4672 31.8464 131.9936 83.2512 2.4576 3.1744 6.3488 5.12 10.3424 5.12h0.4096c4.096 0 7.8848-1.8432 10.3424-5.12 39.5264-51.4048 85.1968-80.1792 131.9936-83.2512 36.0448-2.3552 71.8848 11.3664 98.2016 37.6832 41.7792 41.7792 49.664 105.8816 19.5584 159.4368-50.176 89.6-223.6416 199.9872-260.1984 222.5152-36.6592-23.1424-212.3776-136.9088-260.3008-222.5152z" fill="#192B3A" p-id="6207"></path><path d="M685.568 554.2912s42.496-61.6448 111.616-49.152c69.12 12.4928 102.4 92.4672 39.936 164.0448-62.464 71.5776-151.552 116.5312-151.552 116.5312S568.9344 718.2336 536.4736 675.84c-32.4608-42.496-51.6096-94.1056-24.9856-137.4208 26.624-43.3152 87.4496-43.3152 119.0912-24.9856 19.7632 11.6736 38.1952 25.2928 54.9888 40.8576z m0 0" fill="#EA5050" p-id="6208"></path><path d="M811.6224 506.7776c28.2624 26.5216 32.5632 69.4272 12.9024 104.6528-32.9728 58.88-151.4496 135.9872-175.5136 150.8352-19.3536-12.1856-90.7264-58.2656-133.3248-110.08-17.1008-20.7872-42.1888-77.0048 15.5648-128.1024 68.9152-61.0304 155.2384 29.5936 155.2384 29.5936s82.1248-87.2448 125.1328-46.8992z m0 0" fill="#FF5F5F" p-id="6209"></path><path d="M890.9824 581.5296c-2.56-23.9616-13.312-46.3872-30.4128-63.3856-21.7088-21.7088-51.4048-33.0752-81.408-31.1296-23.6544 1.536-57.9584 11.8784-92.4672 50.7904-34.5088-38.912-68.8128-49.2544-92.4672-50.7904-30.0032-1.9456-59.5968 9.4208-81.408 31.1296-17.1008 16.9984-27.8528 39.3216-30.4128 63.3856-2.4576 23.4496 2.3552 47.0016 13.9264 67.584 34.2016 61.0304 151.4496 137.1136 178.176 153.9072 0 0 12.4928 7.5776 26.2144-1.1264 30.0032-18.6368 141.4144-90.4192 176.3328-152.7808 11.5712-20.5824 16.384-44.1344 13.9264-67.584z m-36.6592 54.784c-31.5392 56.32-139.264 125.952-167.424 143.4624C658.5344 761.856 549.376 690.176 519.2704 636.3136c-18.7392-33.5872-13.9264-73.6256 12.1856-99.6352 14.848-15.0528 35.1232-23.552 56.2176-23.6544 1.6384 0 3.2768 0.1024 4.9152 0.2048 29.4912 1.9456 58.4704 20.2752 83.6608 53.0432 2.4576 3.1744 6.3488 5.12 10.3424 5.12h0.2048c4.096 0 7.8848-1.8432 10.3424-5.12 25.1904-32.768 54.1696-51.0976 83.6608-53.0432 22.4256-1.4336 44.7488 7.0656 61.2352 23.552 26.112 26.0096 31.0272 66.048 12.288 99.5328z" fill="#192B3A" p-id="6210"></path></svg>