<?xml version="1.0" standalone="no"?><!DOCTYPE svg PUBLIC "-//W3C//DTD SVG 1.1//EN"
  "http://www.w3.org/Graphics/SVG/1.1/DTD/svg11.dtd">
<svg t="1621907050123" class="icon" viewBox="0 0 1024 1024" version="1.1" xmlns="http://www.w3.org/2000/svg" p-id="3376"
     xmlns:xlink="http://www.w3.org/1999/xlink" width="300" height="300">
  <defs>
    <style type="text/css"></style>
  </defs>
  <path
    d="M901.523 446.082c-48.095-84.123-128.985-147.937-222.239-174.459-99.026-28.161-207.253-14.148-295.534 38.854-84.892 50.966-147.071 134.885-171.010 230.987-24.875 99.865-6.629 208.414 49.622 294.621 20.773 31.835 46.474 60.415 75.799 84.589h476.091c80.044-65.914 129.812-164.029 135.805-267.55 4.158-71.822-12.82-144.575-48.534-207.042-39.054-68.308 32.207 56.333 0 0-48.095-84.123 32.207 56.333 0 0z"
    fill="#E5687F" p-id="3377"></path>
  <path
    d="M952.003 823.202l-136.854-61.694c-15.631-7.049-34.026-0.092-41.067 15.546-7.063 15.641-0.090 34.034 15.547 41.084l136.857 61.694c15.637 7.049 34.016 0.090 41.067-15.547 7.055-15.638 0.080-34.027-15.549-41.083zM791.443 721.26l136.854 61.694c15.644 7.050 34.022 0.092 41.072-15.546 7.051-15.638 0.076-34.026-15.555-41.082l-136.853-61.695c-15.63-7.049-34.025-0.091-41.058 15.547-7.066 15.638-0.094 34.033 15.54 41.082zM333.513 628.334l-196.819-88.73c-22.483-10.146-48.934-0.137-59.066 22.364-10.158 22.492-0.135 48.934 22.356 59.079l196.828 88.732c22.491 10.137 48.927 0.118 59.073-22.364 10.144-22.493 0.113-48.934-22.372-59.082zM148.709 469.297l136.853 61.696c15.638 7.046 34.019 0.090 41.067-15.54 7.057-15.646 0.083-34.026-15.546-41.082l-136.854-61.695c-15.631-7.055-34.026-0.098-41.067 15.548-7.065 15.637-0.092 34.027 15.547 41.073zM377.008 416.38l-156.519-70.966c-0.974-0.453-2.114-0.719-3.316-0.719-3.225 0-6.004 1.905-7.275 4.652-0.471 1.022-0.735 2.159-0.735 3.359 0 3.227 1.906 6.009 4.654 7.281l156.571 70.987c4.027 1.834 8.769 0.046 10.602-3.982 1.828-4.028 0.039-8.784-3.981-10.611z"
    fill="#E5687F" p-id="3378"></path>
  <path
    d="M299.675 537.635l-152.575-68.788c-17.425-7.86-37.933-0.106-45.785 17.329-7.876 17.447-0.107 37.949 17.328 45.808l152.582 68.787c17.434 7.861 37.925 0.092 45.793-17.344 7.86-17.434 0.083-37.932-17.344-45.792zM330.71 413.248l-141.783-63.911c-16.195-7.305-35.25-0.105-42.548 16.098-7.318 16.201-0.098 35.257 16.105 42.56l141.792 63.919c16.201 7.302 35.243 0.098 42.555-16.105 7.303-16.199 0.075-35.258-16.119-42.561zM1036.805 834.157l-140.101-65.668c-6.493-3.044-14.217-0.247-17.254 6.245-3.036 6.492-0.254 14.214 6.238 17.261l140.1 65.668c6.493 3.051 14.219 0.241 17.262-6.239 3.036-6.489 0.257-14.215-6.244-17.267z"
    fill="#FFFFFF" p-id="3379"></path>
  <path
    d="M418.983 375.276c-11.104 0-20.409 9.289-20.409 20.396 0 11.109 9.299 20.409 20.409 20.409 11.107 0 20.396-9.305 20.396-20.409 0-11.102-9.294-20.396-20.396-20.396zM782.43 747.787c-14.94 0-14.94 23.162 0 23.162 14.932 0 14.932-23.162 0-23.162z"
    fill="#FFFFFF" p-id="3380"></path>
  <path
    d="M79.263 351.678c-16.916-11.665-40.047-11.089-56.372 1.381-16.287 12.442-23.037 34.469-16.345 53.877 6.612 19.181 25.19 32.454 45.482 32.454 21.15 0 40.329-14.422 46.208-34.741 5.7-19.705-2.113-41.344-18.973-52.972zM52.027 424.001c-17.801 0-32.702-14.902-32.702-32.702 0-17.802 14.9-32.704 32.702-32.704s32.703 14.902 32.703 32.704c0.001 17.799-14.901 32.702-32.703 32.702zM545.626 162.992c-17.451 0-32.071 14.601-32.071 32.057s14.621 32.058 32.071 32.058c17.45 0 32.058-14.608 32.058-32.058s-14.608-32.057-32.058-32.057zM545.626 211.715c-9.075 0-16.683-7.588-16.683-16.668s7.609-16.667 16.683-16.667c9.072 0 16.668 7.594 16.668 16.667s-7.595 16.668-16.668 16.668z"
    fill="#E5687F" p-id="3381"></path>
  <path d="M362.293 730.301l-19.319 19.311-19.312-19.311 19.312-19.322z" fill="#E5687F" p-id="3382"></path>
  <path
    d="M342.973 755.052l-24.752-24.75 24.752-24.765 24.763 24.765-24.763 24.75zM329.102 730.3l13.873 13.871 13.877-13.871-13.877-13.879-13.873 13.879z"
    fill="#FFFFFF" p-id="3383"></path>
  <path d="M768.53 377.606l-25.669 25.669-25.67-25.685 25.67-25.668z" fill="#E5687F" p-id="3384"></path>
  <path
    d="M742.86 408.718l-31.109-31.127 31.111-31.11 31.109 31.127-31.111 31.11zM722.631 377.593l20.23 20.242 20.228-20.229-20.23-20.242-20.228 20.229z"
    fill="#FFFFFF" p-id="3385"></path>
  <path
    d="M797.722 203.706l-41.358 41.351 41.357 41.362 41.363-41.354-41.362-41.36zM778.128 245.058l19.594-19.589 19.596 19.596-19.595 19.59-19.595-19.597zM351.286 170.687l54.763 54.783 54.783-54.783-54.783-54.783-54.763 54.783zM439.068 170.687l-33.017 33.017-33.004-33.017 33.004-33.017 33.017 33.017z"
    fill="#E5687F" p-id="3386"></path>
  <path
    d="M746.359 881.132c0 22.759-17.498 41.206-39.094 41.206h-218.955c-21.601 0-39.103-18.447-39.103-41.206l-13.68-311.127c0-22.752 17.506-41.206 39.103-41.206h246.31c21.598 0 39.095 18.454 39.095 41.206l-13.677 311.127z"
    fill="#AFBCC8" p-id="3387"></path>
  <path
    d="M704.407 925.9h-230.764c-24.657 0-44.722-20.037-44.769-44.685l-14.422-311.13v-0.082c0-24.686 20.083-44.769 44.769-44.769h259.607c24.686 0 44.769 20.083 44.769 44.769l-0.003 0.164-14.418 311.049c-0.046 24.646-20.112 44.684-44.769 44.684zM421.579 569.923l14.422 311.126v0.082c0 20.756 16.886 37.644 37.643 37.644h230.764c20.756 0 37.644-16.887 37.644-37.644l0.003-0.164 14.418-311.044c-0.043-20.72-16.912-37.563-37.643-37.563h-259.607c-20.731 0-37.6 16.843-37.644 37.563z"
    fill="#0E1736" p-id="3388"></path>
  <path
    d="M524.131 848.16c0 0 0 0 0 0 0 3.415-2.767 6.185-6.181 6.188-3.414-0.002-6.18-2.77-6.18-6.185 0-0.001 0-0.002 0-0.003v-203.98c0 0 0-0.001 0-0.001 0-3.412 2.767-6.179 6.179-6.179 0 0 0.001 0 0.001 0 3.413 0.001 6.18 2.767 6.181 6.18v203.98zM590.404 848.16c0 3.417-2.754 6.188-6.172 6.188 0 0 0 0 0 0-3.418 0-6.188-2.77-6.189-6.188v-203.98c0.002-3.413 2.769-6.18 6.183-6.18 0.002 0 0.004 0 0.005 0 0.001 0 0.002 0 0.003 0 3.407 0 6.169 2.762 6.169 6.169 0 0.004 0 0.009 0 0.013v203.979zM656.69 848.16c0 0 0 0.001 0 0.001 0 3.414-2.766 6.183-6.18 6.187-3.417-0.003-6.186-2.771-6.189-6.188v-203.98c0-3.415 2.779-6.18 6.189-6.18 3.413 0.001 6.179 2.767 6.18 6.18v203.98z"
    fill="#0E1736" p-id="3389"></path>
  <path
    d="M788.88 540.481c0 6.442-5.212 11.675-11.673 11.675h-376.361c-6.465 0-11.677-5.233-11.677-11.675 0-6.454 5.212-11.683 11.677-11.683h376.359c6.462 0 11.674 5.229 11.674 11.683z"
    fill="#AFBCC8" p-id="3390"></path>
  <path
    d="M777.207 555.718h-376.361c-8.403 0-15.239-6.835-15.239-15.237 0-8.407 6.836-15.246 15.239-15.246h376.359c8.401 0 15.235 6.838 15.235 15.246 0.001 8.402-6.833 15.237-15.234 15.237zM400.847 532.361c-4.474 0-8.113 3.644-8.113 8.121 0 4.473 3.639 8.112 8.113 8.112h376.359c4.471 0 8.111-3.639 8.111-8.112 0-4.477-3.638-8.121-8.111-8.121h-376.359z"
    fill="#0E1736" p-id="3391"></path>
  <path d="M557.837 497.197h69.61s15.107 1.072 15.799 11.526v20.075h28.058v-31.9s2.606-26.561-44.277-26.561h-71.984z"
        fill="#AFBCC8" p-id="3392"></path>
  <path
    d="M674.866 532.361h-35.182v-23.507c-0.557-6.755-11.21-7.979-12.393-8.094l-73.461-0.004c-0.959-0.050-2.083-0.079-3.213-0.079-9.867 0-13.145 2.629-13.691 3.827l-0.004-0.432 0.002 0.436-0.002 0.004v27.849h-33.756v-34.731c0.224-23.037 19.802-30.25 30.122-30.851l0.207-0.005h93.533c19.468 0 33.354 4.428 41.271 13.162 6.803 7.504 6.658 15.61 6.567 17.086v35.34zM646.809 525.235h20.932l0.017-28.686c0.017-0.221 0.428-6.237-4.868-11.971-6.454-6.987-18.855-10.681-35.862-10.681h-93.411c-1.771 0.133-23.114 2.186-23.324 23.765v27.571h19.505l0.012-21.458c0.086-1.046 1.408-10.227 20.884-10.227 1.087 0 2.228 0.028 3.396 0.084l73.611 0.009c0.177 0.013 4.394 0.33 8.734 2.098 8.091 3.298 10.106 8.752 10.37 12.747l0.007 0.236v16.513z"
    fill="#0E1736" p-id="3393"></path>
  <path
    d="M499.648 943.891h310.127M809.775 947.923h-310.127c-2.187-0.052-3.939-1.837-3.939-4.031s1.753-3.979 3.935-4.031h310.132c2.187 0.052 3.939 1.837 3.939 4.031s-1.753 3.979-3.935 4.031zM369.711 943.891h95.406M465.117 947.923h-95.407c-2.187-0.052-3.939-1.837-3.939-4.031s1.753-3.979 3.935-4.031h95.412c2.187 0.052 3.939 1.837 3.939 4.031s-1.753 3.979-3.935 4.031z"
    fill="#0E1736" p-id="3394"></path>
  <path
    d="M832.242 943.891h33.483M865.725 947.923h-33.484c-2.187-0.052-3.939-1.837-3.939-4.031s1.753-3.979 3.935-4.031h33.489c2.187 0.052 3.939 1.837 3.939 4.031s-1.753 3.979-3.935 4.031z"
    fill="#0E1736" p-id="3395"></path>
  <path
    d="M878.598 943.891h99.117M977.715 947.923h-99.118c-2.187-0.052-3.939-1.837-3.939-4.031s1.753-3.979 3.935-4.031h99.123c2.187 0.052 3.939 1.837 3.939 4.031s-1.753 3.979-3.935 4.031z"
    fill="#0E1736" p-id="3396"></path>
  <path
    d="M276.764 922.399h640.451M917.215 926.43h-640.451c-2.187-0.052-3.939-1.837-3.939-4.031s1.753-3.979 3.935-4.031h640.455c2.187 0.051 3.94 1.837 3.94 4.031s-1.753 3.979-3.934 4.031zM190.74 922.399h63.668M254.409 926.43h-63.668c-2.187-0.052-3.939-1.837-3.939-4.031s1.753-3.979 3.935-4.031h63.674c2.187 0.052 3.939 1.837 3.939 4.031s-1.753 3.979-3.935 4.031z"
    fill="#0E1736" p-id="3397"></path>
  <path
    d="M938.123 922.337h31.829M969.952 926.369h-31.829c-2.187-0.052-3.939-1.837-3.939-4.031s1.753-3.979 3.935-4.031h31.835c2.187 0.052 3.939 1.837 3.939 4.031s-1.753 3.979-3.935 4.031z"
    fill="#0E1736" p-id="3398"></path>
  <path
    d="M360.796 984.201h96.739M457.535 988.231h-96.739c-2.187-0.052-3.939-1.837-3.939-4.031s1.753-3.979 3.935-4.031h96.745c2.187 0.052 3.939 1.837 3.939 4.031s-1.753 3.979-3.935 4.031zM677.468 984.201h30.23M707.698 988.231h-30.23c-2.187-0.052-3.939-1.837-3.939-4.031s1.753-3.979 3.935-4.031h30.236c2.187 0.052 3.939 1.837 3.939 4.031s-1.753 3.979-3.935 4.031z"
    fill="#0E1736" p-id="3399"></path>
  <path
    d="M488.358 984.201h172.815M661.173 988.231h-172.815c-2.187-0.052-3.939-1.837-3.939-4.031s1.753-3.979 3.935-4.031h172.82c2.187 0.052 3.939 1.837 3.939 4.031s-1.753 3.979-3.935 4.031z"
    fill="#0E1736" p-id="3400"></path>
  <path
    d="M472.812 1002.686c-10.189 0-18.478-8.292-18.478-18.485 0-10.183 8.289-18.468 18.478-18.468s18.478 8.286 18.478 18.468c-0.001 10.192-8.29 18.485-18.478 18.485zM472.812 973.794c-5.744 0-10.417 4.668-10.417 10.406 0 5.748 4.673 10.422 10.417 10.422 5.743 0 10.416-4.675 10.416-10.422 0-5.739-4.673-10.406-10.416-10.406z"
    fill="#0E1736" p-id="3401"></path>
</svg>
